<svg xmlns="http://www.w3.org/2000/svg" xmlns:xlink="http://www.w3.org/1999/xlink" width="5000" zoomAndPan="magnify" viewBox="0 0 3750 3749.999967" height="5000" preserveAspectRatio="xMidYMid meet" version="1.0"><defs><g/><clipPath id="e1043f4c6c"><path d="M 916.71875 133 L 2832.96875 133 L 2832.96875 3616 L 916.71875 3616 Z M 916.71875 133 " clip-rule="nonzero"/></clipPath></defs><g clip-path="url(#e1043f4c6c)"><path fill="#ff1493" d="M 978.867188 3607.074219 C 956.335938 3621.070312 910.664062 3621.324219 916.828125 3584.46875 C 918.761719 3573.378906 927.773438 3562.457031 932.902344 3553.035156 C 944.714844 3522.070312 957.355469 3491.117188 970.996094 3462.148438 C 1038.1875 3338.609375 1106.425781 3214.652344 1173.1875 3091.285156 C 1291.714844 2885.953125 1405.3125 2677.921875 1527.527344 2474.792969 C 1596.429688 2342.964844 1678.546875 2218.863281 1751.855469 2089.523438 C 1799.292969 2004.964844 1846.3125 1918.292969 1886.785156 1830 C 1839.730469 1825.097656 1792.648438 1820.375 1745.789062 1813.753906 C 1652.566406 1805.570312 1559.742188 1793.207031 1466.90625 1781.625 C 1443.859375 1777.8125 1420.683594 1774.894531 1397.359375 1773.535156 C 1375.886719 1772.78125 1345.390625 1772.167969 1348.851562 1747.496094 C 1346.699219 1743.617188 1345.703125 1739.0625 1346.449219 1734.148438 C 1349.019531 1719.40625 1360.808594 1708.480469 1368.738281 1696.359375 C 1399.292969 1654.664062 1429.285156 1612.523438 1462.160156 1572.605469 C 1504.15625 1519.976562 1543.316406 1465.15625 1585.6875 1412.816406 C 1650.476562 1333.59375 1707.132812 1248.089844 1775.300781 1171.558594 C 1870.238281 1065.554688 1959.011719 954.238281 2055.511719 849.699219 C 2262.800781 628.207031 2458.660156 395.335938 2688.578125 196.433594 C 2711.851562 176.332031 2732.625 152.792969 2757.8125 135.152344 C 2825.164062 121.863281 2783.40625 214.398438 2768.652344 244.234375 C 2746.636719 292.539062 2717.136719 336.757812 2691.460938 383.066406 C 2666.273438 428.714844 2647.855469 477.464844 2627.292969 525.230469 C 2559.523438 666.632812 2479.160156 801.957031 2414.09375 944.742188 C 2366.054688 1058.800781 2312.703125 1169.457031 2255.132812 1278.910156 C 2239.851562 1312.386719 2226.332031 1346.667969 2211.238281 1380.226562 C 2223.195312 1382.269531 2234.863281 1384.710938 2243.707031 1384.363281 C 2355.035156 1388.230469 2465.210938 1406.242188 2575.277344 1422.441406 C 2635.40625 1429.554688 2694.933594 1440.886719 2755.253906 1446.640625 C 2778.5625 1449.835938 2830.039062 1449.585938 2831.832031 1475.660156 C 2834.558594 1487.519531 2829.175781 1502.996094 2818.335938 1513.148438 C 2707.777344 1654.925781 2598.925781 1798.050781 2489.675781 1940.894531 C 2381.085938 2064.589844 2279.527344 2194.335938 2172.257812 2319.113281 C 2089.746094 2416.105469 2003.832031 2510.105469 1916.460938 2602.703125 C 1844.390625 2683.761719 1776.644531 2768.320312 1706.902344 2851.347656 C 1583.316406 3007.546875 1435.207031 3141.835938 1303.152344 3290.617188 C 1225.359375 3376.316406 1144.324219 3458.890625 1059.3125 3537.402344 C 1041.550781 3552.183594 1028.863281 3573.824219 1008.398438 3584.722656 C 1007.871094 3584.953125 1007.332031 3585.167969 1006.800781 3585.335938 C 997.957031 3593.195312 988.730469 3600.546875 978.875 3607.035156 Z M 978.867188 3607.074219 " fill-opacity="1" fill-rule="nonzero"/></g><g fill="#ff1493" fill-opacity="1"><g transform="translate(1490.886184, 1371.985683)"><g><path d="M -230.953125 -217.71875 L -174.796875 -282.84375 C -159.679688 -300.363281 -144.421875 -309.382812 -129.015625 -309.90625 C -113.609375 -310.4375 -96.21875 -302.34375 -76.84375 -285.625 L -66.234375 -276.46875 C -43.304688 -256.695312 -36.679688 -236.6875 -46.359375 -216.4375 C -35.054688 -224.25 -22.882812 -226.101562 -9.84375 -222 C 3.195312 -217.90625 17.539062 -209.113281 33.1875 -195.625 C 58.726562 -173.601562 74.769531 -153.101562 81.3125 -134.125 C 87.851562 -115.144531 82.523438 -95.6875 65.328125 -75.75 L 9.171875 -10.625 Z M -91.71875 -196.59375 C -88.1875 -200.6875 -87.316406 -204.804688 -89.109375 -208.953125 C -90.898438 -213.097656 -94.585938 -217.578125 -100.171875 -222.390625 L -124.21875 -243.125 C -132.039062 -249.875 -138.925781 -249.800781 -144.875 -242.90625 L -153.546875 -232.859375 L -100.15625 -186.8125 Z M 11.5625 -98.734375 C 22.332031 -111.222656 21.753906 -122.609375 9.828125 -132.890625 L -20.078125 -158.6875 C -27.359375 -164.957031 -33.785156 -168.628906 -39.359375 -169.703125 C -44.929688 -170.785156 -50.046875 -168.625 -54.703125 -163.21875 L -62.421875 -154.28125 L 7.1875 -94.234375 Z M 11.5625 -98.734375 "/></g></g></g><g fill="#ff1493" fill-opacity="1"><g transform="translate(1606.368866, 1238.092388)"><g><path d="M 9.171875 -10.625 L -230.953125 -217.71875 L -189.5 -265.796875 L 9.8125 -93.90625 L 52.484375 -143.390625 L 93.296875 -108.1875 Z M 9.171875 -10.625 "/></g></g></g><g fill="#ff1493" fill-opacity="1"><g transform="translate(1702.08208, 1127.120272)"><g><path d="M 60.828125 -66 C 44.109375 -46.625 25.488281 -37.003906 4.96875 -37.140625 C -15.539062 -37.273438 -36.507812 -46.582031 -57.9375 -65.0625 L -172.265625 -163.6875 C -192.953125 -181.519531 -204.21875 -200.007812 -206.0625 -219.15625 C -207.914062 -238.3125 -200.484375 -257.578125 -183.765625 -276.953125 C -167.054688 -296.335938 -149.097656 -306.519531 -129.890625 -307.5 C -110.679688 -308.476562 -90.734375 -300.050781 -70.046875 -282.21875 L 44.28125 -183.59375 C 65.894531 -164.957031 78.234375 -145.546875 81.296875 -125.359375 C 84.359375 -105.171875 77.535156 -85.382812 60.828125 -66 Z M 16.65625 -104.09375 C 20.34375 -108.382812 20.96875 -112.878906 18.53125 -117.578125 C 16.09375 -122.285156 11.519531 -127.53125 4.8125 -133.3125 L -112.59375 -234.578125 C -117.8125 -239.078125 -122.648438 -242.035156 -127.109375 -243.453125 C -131.578125 -244.867188 -135.660156 -243.4375 -139.359375 -239.15625 C -146.265625 -231.132812 -143.664062 -221.898438 -131.5625 -211.453125 L -14.4375 -110.4375 C -7.539062 -104.488281 -1.601562 -100.828125 3.375 -99.453125 C 8.363281 -98.078125 12.789062 -99.625 16.65625 -104.09375 Z M 16.65625 -104.09375 "/></g></g></g><g fill="#ff1493" fill-opacity="1"><g transform="translate(1819.252393, 991.270298)"><g><path d="M 9.171875 -10.625 L -230.953125 -217.71875 L -188.296875 -267.1875 L -54.34375 -190.203125 L -169.234375 -289.28125 L -129.21875 -335.6875 L 110.90625 -128.59375 L 70.40625 -81.625 L -70.53125 -161.265625 L 49.671875 -57.59375 Z M 9.171875 -10.625 "/></g></g></g><g fill="#ff1493" fill-opacity="1"><g transform="translate(1939.315851, 852.065946)"><g><path d="M -230.953125 -217.71875 L -173.828125 -283.96875 C -159.035156 -301.101562 -143.191406 -309.859375 -126.296875 -310.234375 C -109.398438 -310.617188 -91.550781 -302.875 -72.75 -287 L 40.109375 -190.609375 C 63.929688 -170.390625 78.1875 -150.941406 82.875 -132.265625 C 87.570312 -113.597656 81.566406 -94.570312 64.859375 -75.1875 L 9.171875 -10.625 Z M 15.625 -104.015625 C 23.175781 -112.765625 22.664062 -120.835938 14.09375 -128.234375 L -109.75 -235.046875 C -115.144531 -239.703125 -119.554688 -242.773438 -122.984375 -244.265625 C -126.410156 -245.765625 -129.554688 -245.796875 -132.421875 -244.359375 C -135.285156 -242.929688 -138.722656 -239.890625 -142.734375 -235.234375 L -147.3125 -229.921875 L 8.390625 -95.625 Z M 15.625 -104.015625 "/></g></g></g><g fill="#ff1493" fill-opacity="1"><g transform="translate(2058.173801, 714.259287)"><g><path d="M 7.234375 -8.390625 L -232.890625 -215.484375 L -192.859375 -261.890625 L 47.265625 -54.796875 Z M 7.234375 -8.390625 "/></g></g></g><g fill="#ff1493" fill-opacity="1"><g transform="translate(2112.901477, 650.806752)"><g><path d="M 9.171875 -10.625 L -230.953125 -217.71875 L -148.03125 -313.875 L -101.625 -273.859375 L -142.359375 -226.609375 L -95.671875 -186.34375 L -56.625 -231.625 L -11.34375 -192.578125 L -50.390625 -147.296875 L 4.6875 -99.796875 L 48.078125 -150.125 L 94.75 -109.859375 Z M 9.171875 -10.625 "/></g></g></g><g fill="#ffffff" fill-opacity="1"><g transform="translate(2053.874753, 2330.275014)"><g><path d="M 60.578125 -65.71875 C 41.773438 -43.914062 22.789062 -32.832031 3.625 -32.46875 C -15.539062 -32.101562 -37.144531 -42.285156 -61.1875 -63.015625 L -84.671875 -83.265625 L -43.921875 -130.5 L -14.015625 -104.703125 C -2.085938 -94.421875 7.164062 -93.097656 13.75 -100.734375 C 17.445312 -105.023438 18.757812 -109.09375 17.6875 -112.9375 C 16.625 -116.78125 13.113281 -121.273438 7.15625 -126.421875 C -0.664062 -133.171875 -7.941406 -137.820312 -14.671875 -140.375 C -21.398438 -142.9375 -27.734375 -144.257812 -33.671875 -144.34375 C -39.617188 -144.425781 -49.441406 -143.875 -63.140625 -142.6875 L -101.671875 -139.84375 C -131.148438 -137.332031 -155.390625 -144.269531 -174.390625 -160.65625 C -194.890625 -178.332031 -206.441406 -196.492188 -209.046875 -215.140625 C -211.648438 -233.796875 -205.15625 -252.164062 -189.5625 -270.25 C -170.914062 -291.863281 -151.757812 -302.476562 -132.09375 -302.09375 C -112.4375 -301.71875 -90.398438 -291.003906 -65.984375 -269.953125 L -108.171875 -221.03125 L -124.921875 -234.96875 C -128.085938 -237.707031 -131.363281 -238.992188 -134.75 -238.828125 C -138.144531 -238.660156 -141.207031 -237 -143.9375 -233.84375 C -147.15625 -230.101562 -148.539062 -226.414062 -148.09375 -222.78125 C -147.644531 -219.15625 -145.65625 -215.820312 -142.125 -212.78125 C -134.289062 -206.019531 -122.328125 -203.5 -106.234375 -205.21875 L -55.296875 -210 C -43.328125 -211.070312 -32.648438 -211.300781 -23.265625 -210.6875 C -13.890625 -210.070312 -4.210938 -207.726562 5.765625 -203.65625 C 15.753906 -199.59375 26.0625 -192.976562 36.6875 -183.8125 C 60.34375 -163.40625 74.535156 -143.609375 79.265625 -124.421875 C 84.003906 -105.234375 77.773438 -85.664062 60.578125 -65.71875 Z M 60.578125 -65.71875 "/></g></g></g><g fill="#ffffff" fill-opacity="1"><g transform="translate(2165.017811, 2201.41318)"><g><path d="M 9.171875 -10.625 L -230.953125 -217.71875 L -189.5 -265.796875 L 9.8125 -93.90625 L 52.484375 -143.390625 L 93.296875 -108.1875 Z M 9.171875 -10.625 "/></g></g></g><g fill="#ffffff" fill-opacity="1"><g transform="translate(2260.731024, 2090.441065)"><g><path d="M 3.609375 -4.1875 L -216.5 -234.484375 L -146.34375 -315.828125 L 113.546875 -131.65625 L 74.265625 -86.09375 L 32.5 -116.25 L 7.4375 -87.1875 L 43.875 -50.875 Z M -27.734375 -123.84375 L -8.921875 -145.65625 L -140.25 -240.390625 L -142.171875 -238.15625 Z M -27.734375 -123.84375 "/></g></g></g><g fill="#ffffff" fill-opacity="1"><g transform="translate(2377.660271, 1954.870589)"><g><path d="M 34.234375 -39.703125 L -44.875 -107.9375 L -238.921875 -208.484375 L -197.9375 -256 L -105.015625 -199.265625 L -174.796875 -282.84375 L -133.796875 -330.375 L -5.8125 -153.21875 L 73.296875 -84.984375 Z M 34.234375 -39.703125 "/></g></g></g><g fill="#ffffff" fill-opacity="1"><g transform="translate(2485.186919, 1830.201703)"><g><path d="M 60.578125 -65.71875 C 41.773438 -43.914062 22.789062 -32.832031 3.625 -32.46875 C -15.539062 -32.101562 -37.144531 -42.285156 -61.1875 -63.015625 L -84.671875 -83.265625 L -43.921875 -130.5 L -14.015625 -104.703125 C -2.085938 -94.421875 7.164062 -93.097656 13.75 -100.734375 C 17.445312 -105.023438 18.757812 -109.09375 17.6875 -112.9375 C 16.625 -116.78125 13.113281 -121.273438 7.15625 -126.421875 C -0.664062 -133.171875 -7.941406 -137.820312 -14.671875 -140.375 C -21.398438 -142.9375 -27.734375 -144.257812 -33.671875 -144.34375 C -39.617188 -144.425781 -49.441406 -143.875 -63.140625 -142.6875 L -101.671875 -139.84375 C -131.148438 -137.332031 -155.390625 -144.269531 -174.390625 -160.65625 C -194.890625 -178.332031 -206.441406 -196.492188 -209.046875 -215.140625 C -211.648438 -233.796875 -205.15625 -252.164062 -189.5625 -270.25 C -170.914062 -291.863281 -151.757812 -302.476562 -132.09375 -302.09375 C -112.4375 -301.71875 -90.398438 -291.003906 -65.984375 -269.953125 L -108.171875 -221.03125 L -124.921875 -234.96875 C -128.085938 -237.707031 -131.363281 -238.992188 -134.75 -238.828125 C -138.144531 -238.660156 -141.207031 -237 -143.9375 -233.84375 C -147.15625 -230.101562 -148.539062 -226.414062 -148.09375 -222.78125 C -147.644531 -219.15625 -145.65625 -215.820312 -142.125 -212.78125 C -134.289062 -206.019531 -122.328125 -203.5 -106.234375 -205.21875 L -55.296875 -210 C -43.328125 -211.070312 -32.648438 -211.300781 -23.265625 -210.6875 C -13.890625 -210.070312 -4.210938 -207.726562 5.765625 -203.65625 C 15.753906 -199.59375 26.0625 -192.976562 36.6875 -183.8125 C 60.34375 -163.40625 74.535156 -143.609375 79.265625 -124.421875 C 84.003906 -105.234375 77.773438 -85.664062 60.578125 -65.71875 Z M 60.578125 -65.71875 "/></g></g></g><g fill="#ff1493" fill-opacity="1"><g transform="translate(1627.129427, 3551.612929)"><g><path d="M 3.609375 -4.1875 L -216.5 -234.484375 L -146.34375 -315.828125 L 113.546875 -131.65625 L 74.265625 -86.09375 L 32.5 -116.25 L 7.4375 -87.1875 L 43.875 -50.875 Z M -27.734375 -123.84375 L -8.921875 -145.65625 L -140.25 -240.390625 L -142.171875 -238.15625 Z M -27.734375 -123.84375 "/></g></g></g><g fill="#ff1493" fill-opacity="1"><g transform="translate(1744.058664, 3416.042464)"><g><path d="M -230.953125 -217.71875 L -176.234375 -281.171875 C -159.679688 -300.367188 -141.671875 -308.722656 -122.203125 -306.234375 C -102.734375 -303.742188 -81.070312 -292.210938 -57.21875 -271.640625 C -33.363281 -251.066406 -18.515625 -231.921875 -12.671875 -214.203125 C -6.835938 -196.492188 -12.035156 -178.226562 -28.265625 -159.40625 L -45.140625 -139.84375 L 49.90625 -57.859375 L 9.171875 -10.625 Z M -86.03125 -180 C -81.050781 -185.78125 -78.46875 -190.941406 -78.28125 -195.484375 C -78.101562 -200.035156 -79.65625 -204.457031 -82.9375 -208.75 C -86.226562 -213.050781 -91.597656 -218.421875 -99.046875 -224.859375 C -109.109375 -233.523438 -117.335938 -238.664062 -123.734375 -240.28125 C -130.128906 -241.90625 -136.222656 -239.363281 -142.015625 -232.65625 L -146.59375 -227.34375 L -88.453125 -177.203125 Z M -86.03125 -180 "/></g></g></g><g fill="#ff1493" fill-opacity="1"><g transform="translate(1857.85371, 3284.105854)"><g><path d="M -230.953125 -217.71875 L -176.234375 -281.171875 C -159.679688 -300.367188 -141.671875 -308.722656 -122.203125 -306.234375 C -102.734375 -303.742188 -81.070312 -292.210938 -57.21875 -271.640625 C -33.363281 -251.066406 -18.515625 -231.921875 -12.671875 -214.203125 C -6.835938 -196.492188 -12.035156 -178.226562 -28.265625 -159.40625 L -45.140625 -139.84375 L 49.90625 -57.859375 L 9.171875 -10.625 Z M -86.03125 -180 C -81.050781 -185.78125 -78.46875 -190.941406 -78.28125 -195.484375 C -78.101562 -200.035156 -79.65625 -204.457031 -82.9375 -208.75 C -86.226562 -213.050781 -91.597656 -218.421875 -99.046875 -224.859375 C -109.109375 -233.523438 -117.335938 -238.664062 -123.734375 -240.28125 C -130.128906 -241.90625 -136.222656 -239.363281 -142.015625 -232.65625 L -146.59375 -227.34375 L -88.453125 -177.203125 Z M -86.03125 -180 "/></g></g></g><g fill="#ff1493" fill-opacity="1"><g transform="translate(1971.648746, 3152.169255)"><g><path d="M 3.609375 -4.1875 L -216.5 -234.484375 L -146.34375 -315.828125 L 113.546875 -131.65625 L 74.265625 -86.09375 L 32.5 -116.25 L 7.4375 -87.1875 L 43.875 -50.875 Z M -27.734375 -123.84375 L -8.921875 -145.65625 L -140.25 -240.390625 L -142.171875 -238.15625 Z M -27.734375 -123.84375 "/></g></g></g><g fill="#ff1493" fill-opacity="1"><g transform="translate(2088.577993, 3016.598779)"><g><path d="M -230.953125 -217.71875 L -167.3125 -291.515625 C -157.1875 -303.253906 -146.695312 -310.046875 -135.84375 -311.890625 C -124.988281 -313.742188 -113.796875 -311.648438 -102.265625 -305.609375 C -90.734375 -299.566406 -77.515625 -290.113281 -62.609375 -277.25 C -49.003906 -265.519531 -39.90625 -254.59375 -35.3125 -244.46875 C -30.726562 -234.34375 -30.726562 -223.613281 -35.3125 -212.28125 C -27.550781 -218.257812 -19.375 -220.382812 -10.78125 -218.65625 C -2.1875 -216.9375 7.046875 -211.820312 16.921875 -203.3125 L 107.28125 -124.390625 L 66.78125 -77.421875 L -27.140625 -158.421875 C -33.847656 -164.210938 -39.257812 -166.609375 -43.375 -165.609375 C -47.488281 -164.617188 -52.519531 -160.675781 -58.46875 -153.78125 L 51.109375 -59.265625 L 9.171875 -10.625 Z M -89.984375 -201.4375 C -84.191406 -208.144531 -88.566406 -217.765625 -103.109375 -230.296875 C -109.441406 -235.765625 -114.429688 -239.582031 -118.078125 -241.75 C -121.734375 -243.925781 -124.804688 -244.789062 -127.296875 -244.34375 C -129.796875 -243.90625 -132.253906 -242.285156 -134.671875 -239.484375 L -144.3125 -228.296875 L -99.859375 -189.96875 Z M -89.984375 -201.4375 "/></g></g></g><g fill="#ff1493" fill-opacity="1"><g transform="translate(2203.578536, 2883.264487)"><g><path d="M 9.171875 -10.625 L -230.953125 -217.71875 L -148.03125 -313.875 L -101.625 -273.859375 L -142.359375 -226.609375 L -95.671875 -186.34375 L -56.625 -231.625 L -11.34375 -192.578125 L -50.390625 -147.296875 L 4.6875 -99.796875 L 48.078125 -150.125 L 94.75 -109.859375 Z M 9.171875 -10.625 "/></g></g></g><g fill="#ff1493" fill-opacity="1"><g transform="translate(2302.908065, 2768.099532)"><g><path d="M 9.171875 -10.625 L -230.953125 -217.71875 L -189.5 -265.796875 L 9.8125 -93.90625 L 52.484375 -143.390625 L 93.296875 -108.1875 Z M 9.171875 -10.625 "/></g></g></g></svg>